<svg width="800" height="600" viewBox="0 0 800 600" xmlns="http://www.w3.org/2000/svg">
  <rect width="800" height="600" fill="#0F0F0F"/>
  <rect x="40" y="40" width="720" height="60" rx="8" fill="#1F1F1F"/>
  <circle cx="80" cy="70" r="15" fill="#7F5BFF"/>
  <rect x="110" y="60" width="150" height="20" rx="4" fill="#FAFAFA"/>
  <rect x="40" y="120" width="350" height="440" rx="12" fill="#1A1A1A"/>
  <rect x="60" y="140" width="130" height="24" rx="4" fill="#7F5BFF"/>
  <rect x="60" y="180" width="310" height="60" rx="8" fill="#2A2A2A"/>
  <rect x="80" y="195" width="200" height="12" rx="2" fill="#FAFAFA"/>
  <rect x="80" y="215" width="150" height="10" rx="2" fill="#888"/>
  <rect x="290" y="195" width="60" height="30" rx="6" fill="#14E956"/>
  <rect x="60" y="260" width="310" height="60" rx="8" fill="#2A2A2A"/>
  <rect x="80" y="275" width="220" height="12" rx="2" fill="#FAFAFA"/>
  <rect x="80" y="295" width="170" height="10" rx="2" fill="#888"/>
  <rect x="290" y="275" width="60" height="30" rx="6" fill="#7F5BFF"/>
  <rect x="410" y="120" width="350" height="440" rx="12" fill="#1A1A1A"/>
  <rect x="430" y="140" width="160" height="24" rx="4" fill="#FAFAFA"/>
  <rect x="430" y="180" width="310" height="200" rx="8" fill="#2A2A2A"/>
  <rect x="450" y="200" width="270" height="40" rx="6" fill="#333"/>
  <rect x="470" y="210" width="150" height="12" rx="2" fill="#7F5BFF"/>
  <rect x="470" y="225" width="100" height="10" rx="2" fill="#888"/>
  <text x="400" y="590" font-family="Arial, sans-serif" font-size="14" fill="#888">Expert Dashboard</text>
</svg> 